<svg width="64" height="64" viewBox="0 0 64 64" fill="none" xmlns="http://www.w3.org/2000/svg">
<rect width="64" height="64" rx="4" fill="url(#paint0_linear_6602_2015)"/>
<g filter="url(#filter0_dd_6602_2015)">
<path d="M17.1901 35.776C17.6808 35.776 18.1555 35.8187 18.6141 35.904C19.0728 35.9787 19.5261 36.1227 19.9741 36.336L19.6221 37.552C19.1635 37.3387 18.7475 37.1893 18.3741 37.104C18.0115 37.008 17.6381 36.96 17.2541 36.96C16.6461 36.96 16.1661 37.0933 15.8141 37.36C15.4621 37.6267 15.2861 38 15.2861 38.48C15.2861 38.8853 15.4141 39.2107 15.6701 39.456C15.9368 39.7013 16.3688 39.9147 16.9661 40.096L17.9741 40.416C18.8915 40.704 19.5368 41.0987 19.9101 41.6C20.2941 42.0907 20.4861 42.6453 20.4861 43.264C20.4861 43.7013 20.3955 44.1013 20.2141 44.464C20.0435 44.816 19.7981 45.12 19.4781 45.376C19.1688 45.6213 18.8008 45.8133 18.3741 45.952C17.9475 46.08 17.4781 46.144 16.9661 46.144C16.4541 46.144 15.9315 46.096 15.3981 46C14.8755 45.9147 14.3528 45.7493 13.8301 45.504L14.1821 44.304C14.6408 44.528 15.0888 44.6933 15.5261 44.8C15.9635 44.9067 16.4221 44.96 16.9021 44.96C17.4781 44.96 17.9688 44.8267 18.3741 44.56C18.7795 44.2933 18.9821 43.8987 18.9821 43.376C18.9821 43.184 18.9501 43.008 18.8861 42.848C18.8328 42.6773 18.7315 42.5173 18.5821 42.368C18.4435 42.2187 18.2515 42.08 18.0061 41.952C17.7608 41.824 17.4515 41.7013 17.0781 41.584L16.0701 41.264C15.3341 41.0293 14.7688 40.7093 14.3741 40.304C13.9795 39.8987 13.7821 39.3493 13.7821 38.656C13.7821 37.7707 14.0701 37.072 14.6461 36.56C15.2328 36.0373 16.0808 35.776 17.1901 35.776ZM28.7939 35.92V37.168H25.6419V46H24.1699V37.168H21.0819V35.92H28.7939ZM30.2175 35.92H36.2975V37.136H31.6895V40.16H35.8815V41.36H31.6895V44.784H36.3455V46H30.2175V35.92ZM38.8251 35.92H40.7451L42.8571 42.352C42.9638 42.6613 43.0651 42.9653 43.1611 43.264C43.2571 43.552 43.3478 43.8453 43.4331 44.144H43.4651C43.5505 43.8453 43.6358 43.5573 43.7211 43.28C43.8171 43.0027 43.9238 42.6933 44.0411 42.352L46.1051 35.92H48.0251L48.9051 46H47.4331L47.0171 40.656C46.9745 40.1333 46.9425 39.616 46.9211 39.104C46.8998 38.5813 46.8785 38.0533 46.8571 37.52H46.8251C46.6758 38.0427 46.5211 38.5653 46.3611 39.088C46.2118 39.6107 46.0518 40.1333 45.8811 40.656L44.1051 46H42.7611L40.9851 40.64C40.8038 40.096 40.6385 39.5787 40.4891 39.088C40.3398 38.5867 40.1905 38.064 40.0411 37.52H40.0091C39.9878 38.0427 39.9558 38.5653 39.9131 39.088C39.8811 39.6107 39.8438 40.1333 39.8011 40.656L39.4171 46H37.9771L38.8251 35.92Z" fill="#1A1A1A"/>
</g>
<g filter="url(#filter1_dd_6602_2015)">
<path d="M8.08305 21.94C8.33905 21.876 8.67505 21.808 9.09105 21.736C9.51505 21.664 10.003 21.628 10.555 21.628C10.955 21.628 11.291 21.684 11.563 21.796C11.835 21.9 12.063 22.056 12.247 22.264C12.303 22.224 12.391 22.168 12.511 22.096C12.631 22.024 12.779 21.956 12.955 21.892C13.131 21.82 13.327 21.76 13.543 21.712C13.759 21.656 13.991 21.628 14.239 21.628C14.719 21.628 15.111 21.7 15.415 21.844C15.719 21.98 15.955 22.176 16.123 22.432C16.299 22.688 16.415 22.992 16.471 23.344C16.535 23.696 16.567 24.08 16.567 24.496V28H15.451V24.736C15.451 24.368 15.431 24.052 15.391 23.788C15.359 23.524 15.291 23.304 15.187 23.128C15.091 22.952 14.955 22.824 14.779 22.744C14.611 22.656 14.391 22.612 14.119 22.612C13.743 22.612 13.431 22.664 13.183 22.768C12.943 22.864 12.779 22.952 12.691 23.032C12.755 23.24 12.803 23.468 12.835 23.716C12.867 23.964 12.883 24.224 12.883 24.496V28H11.767V24.736C11.767 24.368 11.747 24.052 11.707 23.788C11.667 23.524 11.595 23.304 11.491 23.128C11.395 22.952 11.259 22.824 11.083 22.744C10.915 22.656 10.699 22.612 10.435 22.612C10.323 22.612 10.203 22.616 10.075 22.624C9.94705 22.632 9.82305 22.644 9.70305 22.66C9.59105 22.668 9.48705 22.68 9.39105 22.696C9.29505 22.712 9.23105 22.724 9.19905 22.732V28H8.08305V21.94ZM23.387 27.82C23.131 27.884 22.791 27.952 22.367 28.024C21.951 28.096 21.467 28.132 20.915 28.132C20.435 28.132 20.031 28.064 19.703 27.928C19.375 27.784 19.111 27.584 18.911 27.328C18.711 27.072 18.567 26.772 18.479 26.428C18.391 26.076 18.347 25.688 18.347 25.264V21.76H19.463V25.024C19.463 25.784 19.583 26.328 19.823 26.656C20.063 26.984 20.467 27.148 21.035 27.148C21.155 27.148 21.279 27.144 21.407 27.136C21.535 27.128 21.655 27.12 21.767 27.112C21.879 27.096 21.979 27.084 22.067 27.076C22.163 27.06 22.231 27.044 22.271 27.028V21.76H23.387V27.82ZM27.1816 28.12C26.4936 28.104 26.0056 27.956 25.7176 27.676C25.4296 27.396 25.2856 26.96 25.2856 26.368V18.88L26.4016 18.688V26.188C26.4016 26.372 26.4176 26.524 26.4496 26.644C26.4816 26.764 26.5336 26.86 26.6056 26.932C26.6776 27.004 26.7736 27.06 26.8936 27.1C27.0136 27.132 27.1616 27.16 27.3376 27.184L27.1816 28.12ZM28.5909 28V18.88L29.7069 18.688V21.88C29.9149 21.8 30.1349 21.74 30.3669 21.7C30.6069 21.652 30.8429 21.628 31.0749 21.628C31.5709 21.628 31.9829 21.7 32.3109 21.844C32.6389 21.98 32.8989 22.176 33.0909 22.432C33.2909 22.68 33.4309 22.98 33.5109 23.332C33.5909 23.684 33.6309 24.072 33.6309 24.496V28H32.5149V24.736C32.5149 24.352 32.4869 24.024 32.4309 23.752C32.3829 23.48 32.2989 23.26 32.1789 23.092C32.0589 22.924 31.8989 22.804 31.6989 22.732C31.4989 22.652 31.2509 22.612 30.9549 22.612C30.8349 22.612 30.7109 22.62 30.5829 22.636C30.4549 22.652 30.3309 22.672 30.2109 22.696C30.0989 22.712 29.9949 22.732 29.8989 22.756C29.8109 22.78 29.7469 22.8 29.7069 22.816V28H28.5909ZM35.0983 24.892C35.0983 24.34 35.1783 23.86 35.3383 23.452C35.4983 23.036 35.7103 22.692 35.9743 22.42C36.2383 22.148 36.5423 21.944 36.8863 21.808C37.2303 21.672 37.5823 21.604 37.9423 21.604C38.7823 21.604 39.4263 21.868 39.8743 22.396C40.3223 22.916 40.5463 23.712 40.5463 24.784C40.5463 24.832 40.5463 24.896 40.5463 24.976C40.5463 25.048 40.5423 25.116 40.5343 25.18H36.2623C36.3103 25.828 36.4983 26.32 36.8263 26.656C37.1543 26.992 37.6663 27.16 38.3623 27.16C38.7543 27.16 39.0823 27.128 39.3463 27.064C39.6183 26.992 39.8223 26.924 39.9583 26.86L40.1143 27.796C39.9783 27.868 39.7383 27.944 39.3943 28.024C39.0583 28.104 38.6743 28.144 38.2423 28.144C37.6983 28.144 37.2263 28.064 36.8263 27.904C36.4343 27.736 36.1103 27.508 35.8543 27.22C35.5983 26.932 35.4063 26.592 35.2783 26.2C35.1583 25.8 35.0983 25.364 35.0983 24.892ZM39.3823 24.28C39.3903 23.776 39.2623 23.364 38.9983 23.044C38.7423 22.716 38.3863 22.552 37.9303 22.552C37.6743 22.552 37.4463 22.604 37.2463 22.708C37.0543 22.804 36.8903 22.932 36.7543 23.092C36.6183 23.252 36.5103 23.436 36.4303 23.644C36.3583 23.852 36.3103 24.064 36.2863 24.28H39.3823ZM44.4535 21.628C44.5495 21.628 44.6575 21.636 44.7775 21.652C44.9055 21.66 45.0295 21.676 45.1495 21.7C45.2695 21.716 45.3775 21.736 45.4735 21.76C45.5775 21.776 45.6535 21.792 45.7015 21.808L45.5095 22.78C45.4215 22.748 45.2735 22.712 45.0655 22.672C44.8655 22.624 44.6055 22.6 44.2855 22.6C44.0775 22.6 43.8695 22.624 43.6615 22.672C43.4615 22.712 43.3295 22.74 43.2655 22.756V28H42.1495V22.024C42.4135 21.928 42.7415 21.84 43.1335 21.76C43.5255 21.672 43.9655 21.628 44.4535 21.628ZM46.4304 24.892C46.4304 24.34 46.5104 23.86 46.6704 23.452C46.8304 23.036 47.0424 22.692 47.3064 22.42C47.5704 22.148 47.8744 21.944 48.2184 21.808C48.5624 21.672 48.9144 21.604 49.2744 21.604C50.1144 21.604 50.7584 21.868 51.2064 22.396C51.6544 22.916 51.8784 23.712 51.8784 24.784C51.8784 24.832 51.8784 24.896 51.8784 24.976C51.8784 25.048 51.8744 25.116 51.8664 25.18H47.5944C47.6424 25.828 47.8304 26.32 48.1584 26.656C48.4864 26.992 48.9984 27.16 49.6944 27.16C50.0864 27.16 50.4144 27.128 50.6784 27.064C50.9504 26.992 51.1544 26.924 51.2904 26.86L51.4464 27.796C51.3104 27.868 51.0704 27.944 50.7264 28.024C50.3904 28.104 50.0064 28.144 49.5744 28.144C49.0304 28.144 48.5584 28.064 48.1584 27.904C47.7664 27.736 47.4424 27.508 47.1864 27.22C46.9304 26.932 46.7384 26.592 46.6104 26.2C46.4904 25.8 46.4304 25.364 46.4304 24.892ZM50.7144 24.28C50.7224 23.776 50.5944 23.364 50.3304 23.044C50.0744 22.716 49.7184 22.552 49.2624 22.552C49.0064 22.552 48.7784 22.604 48.5784 22.708C48.3864 22.804 48.2224 22.932 48.0864 23.092C47.9504 23.252 47.8424 23.436 47.7624 23.644C47.6904 23.852 47.6424 24.064 47.6184 24.28H50.7144ZM54.9335 27.196C55.3895 27.196 55.7255 27.136 55.9415 27.016C56.1655 26.896 56.2775 26.704 56.2775 26.44C56.2775 26.168 56.1695 25.952 55.9535 25.792C55.7375 25.632 55.3815 25.452 54.8855 25.252C54.6455 25.156 54.4135 25.06 54.1895 24.964C53.9735 24.86 53.7855 24.74 53.6255 24.604C53.4655 24.468 53.3375 24.304 53.2415 24.112C53.1455 23.92 53.0975 23.684 53.0975 23.404C53.0975 22.852 53.3015 22.416 53.7095 22.096C54.1175 21.768 54.6735 21.604 55.3775 21.604C55.5535 21.604 55.7295 21.616 55.9055 21.64C56.0815 21.656 56.2455 21.68 56.3975 21.712C56.5495 21.736 56.6815 21.764 56.7935 21.796C56.9135 21.828 57.0055 21.856 57.0695 21.88L56.8655 22.84C56.7455 22.776 56.5575 22.712 56.3015 22.648C56.0455 22.576 55.7375 22.54 55.3775 22.54C55.0655 22.54 54.7935 22.604 54.5615 22.732C54.3295 22.852 54.2135 23.044 54.2135 23.308C54.2135 23.444 54.2375 23.564 54.2855 23.668C54.3415 23.772 54.4215 23.868 54.5255 23.956C54.6375 24.036 54.7735 24.112 54.9335 24.184C55.0935 24.256 55.2855 24.332 55.5095 24.412C55.8055 24.524 56.0695 24.636 56.3015 24.748C56.5335 24.852 56.7295 24.976 56.8895 25.12C57.0575 25.264 57.1855 25.44 57.2735 25.648C57.3615 25.848 57.4055 26.096 57.4055 26.392C57.4055 26.968 57.1895 27.404 56.7575 27.7C56.3335 27.996 55.7255 28.144 54.9335 28.144C54.3815 28.144 53.9495 28.096 53.6375 28C53.3255 27.912 53.1135 27.844 53.0015 27.796L53.2055 26.836C53.3335 26.884 53.5375 26.956 53.8175 27.052C54.0975 27.148 54.4695 27.196 54.9335 27.196Z" fill="#1A1A1A"/>
</g>
<defs>
<filter id="filter0_dd_6602_2015" x="9.78223" y="35.7759" width="43.123" height="18.3682" filterUnits="userSpaceOnUse" color-interpolation-filters="sRGB">
<feFlood flood-opacity="0" result="BackgroundImageFix"/>
<feColorMatrix in="SourceAlpha" type="matrix" values="0 0 0 0 0 0 0 0 0 0 0 0 0 0 0 0 0 0 127 0" result="hardAlpha"/>
<feOffset dy="4"/>
<feGaussianBlur stdDeviation="2"/>
<feComposite in2="hardAlpha" operator="out"/>
<feColorMatrix type="matrix" values="0 0 0 0 0 0 0 0 0 0 0 0 0 0 0 0 0 0 0.25 0"/>
<feBlend mode="normal" in2="BackgroundImageFix" result="effect1_dropShadow_6602_2015"/>
<feColorMatrix in="SourceAlpha" type="matrix" values="0 0 0 0 0 0 0 0 0 0 0 0 0 0 0 0 0 0 127 0" result="hardAlpha"/>
<feOffset dy="4"/>
<feGaussianBlur stdDeviation="2"/>
<feComposite in2="hardAlpha" operator="out"/>
<feColorMatrix type="matrix" values="0 0 0 0 0 0 0 0 0 0 0 0 0 0 0 0 0 0 0.25 0"/>
<feBlend mode="normal" in2="effect1_dropShadow_6602_2015" result="effect2_dropShadow_6602_2015"/>
<feBlend mode="normal" in="SourceGraphic" in2="effect2_dropShadow_6602_2015" result="shape"/>
</filter>
<filter id="filter1_dd_6602_2015" x="4.08301" y="18.688" width="57.3223" height="17.4561" filterUnits="userSpaceOnUse" color-interpolation-filters="sRGB">
<feFlood flood-opacity="0" result="BackgroundImageFix"/>
<feColorMatrix in="SourceAlpha" type="matrix" values="0 0 0 0 0 0 0 0 0 0 0 0 0 0 0 0 0 0 127 0" result="hardAlpha"/>
<feOffset dy="4"/>
<feGaussianBlur stdDeviation="2"/>
<feComposite in2="hardAlpha" operator="out"/>
<feColorMatrix type="matrix" values="0 0 0 0 0 0 0 0 0 0 0 0 0 0 0 0 0 0 0.25 0"/>
<feBlend mode="normal" in2="BackgroundImageFix" result="effect1_dropShadow_6602_2015"/>
<feColorMatrix in="SourceAlpha" type="matrix" values="0 0 0 0 0 0 0 0 0 0 0 0 0 0 0 0 0 0 127 0" result="hardAlpha"/>
<feOffset dy="4"/>
<feGaussianBlur stdDeviation="2"/>
<feComposite in2="hardAlpha" operator="out"/>
<feColorMatrix type="matrix" values="0 0 0 0 0 0 0 0 0 0 0 0 0 0 0 0 0 0 0.25 0"/>
<feBlend mode="normal" in2="effect1_dropShadow_6602_2015" result="effect2_dropShadow_6602_2015"/>
<feBlend mode="normal" in="SourceGraphic" in2="effect2_dropShadow_6602_2015" result="shape"/>
</filter>
<linearGradient id="paint0_linear_6602_2015" x1="-2" y1="-2" x2="71.5" y2="84.5" gradientUnits="userSpaceOnUse">
<stop stop-color="#FF597D"/>
<stop offset="1" stop-color="#FF597D" stop-opacity="0"/>
</linearGradient>
</defs>
</svg>
